<svg width="507" height="452" viewBox="0 0 507 452" fill="none" xmlns="http://www.w3.org/2000/svg"><path d="M509.818 138.862c-6.367 2.539-10.133 4.188-15.572 6.57-2.275.498-4.759 1.087-7.126 1.375-5.727.016-9.833.318-16.607.791l-.719.066-11.386 8.726c-3.557 1.558-7.414 2.997-10.878 4.764a328.565 328.565 0 00-13.769 3.287l-.418.183-8.418 8.673c-4.118 2.552-8.354 5.404-12.381 8.165-3.765 1.649-7.413 2.997-12.434 5.196l-.627.274-7.502 10.765c-2.353 2.028-4.824 4.356-7.085 6.593-.628.275-1.164.759-1.582.942.117-.3.026-.51.143-.81.81-3.845 1.711-7.481 2.52-11.326l6.755-14.177-.065-.719c-.892-6.59-1.377-11.115-2.046-16.057.612-6.003.806-11.822 1-17.641l3.879-13.915-.275-.628c-1.912-6.642-3.116-11.1-4.687-16.396a155.806 155.806 0 00-1.732-14.2l1.903-17.288-.275-.628c-3.507-7.44-5.941-11.858-9.408-18.068-.681-2.694-1.572-5.296-2.37-7.688-.866-7.1-1.443-11.834-2.767-19.98l-.734-5.662-3.804 4.408c-5.228 6.279-8.286 10.111-12.652 15.514-2.026 1.635-5.242 4.539-7.268 6.174-5.583 3.193-9.701 5.744-16.146 9.814l-.536.484-7.343 15.681c-3.151 3.624-6 7.365-8.849 11.105-4.17 3.572-7.504 6.777-12.654 11.526l-.536.484-3.97 13.705c-3.019 5.062-5.737 10.241-8.363 15.63-1.752 2.263-3.177 4.133-5.02 6.187l-.117.301-11.118 27.556 1.77-22.715-.916-2.091-.184-.419c-.575-.745-1.059-1.281-1.844-1.934a112.76 112.76 0 00-5.666-11.231l-4.178-16.37-.484-.536c-5.167-4.968-8.882-8.327-12.688-11.895a247.785 247.785 0 00-11.278-15.505l-6.23-14.225-.693-.445c-6.213-4.509-10.372-7.175-15.316-10.494-3.598-3.66-7.404-7.229-11.211-10.797l-10.232-15.963-.693-.444c-8.305-3.594-13.092-5.985-20.311-8.807-2.472-1.66-4.944-3.32-7.325-4.77-5.559-5.294-9.457-9.072-16.011-14.927L148.096.592l-.011 6.238a901.56 901.56 0 00.113 21.89c-.457 2.943-1.005 5.676-1.462 8.618-2.821 7.22-4.611 12.241-7.302 20.9l-.143.81 4.793 18.344c.041 5.218-.01 10.226.332 15.562-.913 5.884-1.774 10.749-2.674 18.373l-.143.811 6.229 14.225c1.01 6.289 2.32 12.696 3.747 18.803.133 5.426-.009 10.225.137 17.391l-.261 1.112 9.198 14.172c1.44 3.857 2.972 7.923 4.411 11.78.381 2.576.578 4.733.866 7.1l16.717 13.123-30.172-11.967c-1.321-.17-2.55-.13-3.871-.3-5.741-1.724-11.391-3.238-17.158-4.452l-12.765-6.377-1.02-.052c-6.983.565-11.599.841-17.051 1.484-4.682-.443-9.364-.886-14.163-1.028l-16.504-5.237-.628.274c-7.989 2.252-12.657 3.549-19.416 5.761-2.668.171-5.244.551-8.12.814-7.14-.364-12.031-.715-20.191-1.13l-5.82-.194 3.664 4.379c5.206 6.196 8.385 10.04 12.807 15.583 1.309 2.418 2.827 4.745 4.044 6.955 2.212 6.76 4.018 11.453 6.898 19.167l.275.628 13.995 10.325 9.263 10.903c2.826 4.746 5.286 8.655 8.87 14.564l.276.627 12.856 6.586c4.409 3.804 9.118 7.725 13.643 11.228 3.179 3.843 6.175 7.268 10.414 12.393l.484.536 15 4.649c3.375 2.013 6.658 3.816 10.032 5.829.092.209.393.327.484.536-.627.275-1.346.34-1.765.524-3.387.236-6.472.59-9.65.735l-12.999-1.786-.627.275c-5.021 2.198-8.486 3.965-12.251 5.614-4.76 1.087-9.728 2.266-14.396 3.562l-12.083.305-.627.275c-4.864 3.127-8.145 5.312-11.753 7.89l-10.878 4.763-14.253 2.752-.326.392c-4.942 4.657-7.948 7.47-11.843 11.669-1.909 1.334-3.818 2.669-5.844 4.304-5.439 2.382-9.113 4.24-15.389 6.989l-3.974 1.74 4.512 1.764c6.317 2.469 10.227 3.998 15.733 6.323 1.988 1.124 3.767 2.34 5.755 3.463 4.29 4.105 7.522 6.928 12.715 11.385l.392.327 14.32 1.956a146.936 146.936 0 0011.13 4.351c3.976 2.248 7.141 4.352 12.32 7.07l.393.326 12.082-.305c4.748 1.162 9.612 2.024 14.686 2.793 3.911 1.529 7.311 3.031 12.425 5.03l.602.235 12.814-2.62c3.269.064 6.329.22 9.598.284 5.048 1.28 8.984 2.299 15.445 3.957l.601.235 15.036-6.086c.209-.092.719-.066.929-.157l-1.283-2.929 42.627-5.704-20.919 9.161-4.064 5.52c-.026.51-.262 1.112-.497 1.713-1.032 2.198-1.855 4.303-2.796 6.71l-5.28 7.298-.117.301c-.208 4.08-.43 6.421-.402 9.899-.17 1.321-.574 3.243-.835 4.355-1.503 3.4-2.234 5.715-3.972 9.717l-1.058 2.708 2.811-.982c4.066-1.532 6.158-2.448 9.597-3.704 1.555-.432 2.994-.564 4.55-.996 3.269.064 5.727-.015 9.833-.317l.51.026 7.217-5.155c2.392-.799 4.484-1.715 6.785-2.723 2.694-.681 5.061-.969 8.382-1.925l.209-.091 5.268-5.05a60.103 60.103 0 007.609-4.828c2.301-1.008 4.484-1.715 7.622-3.089l.419-.183 4.626-6.514c1.491-1.151 2.889-2.512 4.497-3.964a191.05 191.05 0 008.42-4.684l.418-.184 4.456-9.181c.209-.092.117-.301.327-.392l9.778-7.275.261-1.111c.562-.994 1.242-2.289 1.921-3.584-1.021-4.04-1.951-7.871-3.182-11.82.17-1.321.156-3.06-.041-5.217a48.56 48.56 0 00-.8-6.381c-.498-2.276-.904-4.342-1.728-6.224-.616-1.975-1.558-3.556-2.735-4.537l-.615-1.974c-2.263-1.752-4.46-2.784-6.618-2.587l-24.936 1.696-14.986 1.078c-2.667.171-5.309-.168-7.833-.808l-.601-.235-.602-.235c-2.014-.614-3.701-1.62-5.389-2.627l-.916-2.092 4.473.535-5.861-5.412c-.916-2.091-2.342-4.209-4.252-6.863-1.91-2.654-3.82-5.308-6.031-8.079-2.211-2.772-4.422-5.543-6.842-8.223-2.42-2.68-4.239-5.124-5.966-7.36-.576-.745-1.334-1.909-2.577-3.608-1.152-1.49-2.002-2.863-2.159-3.791l-6.526-2.378-.184-.418c.118-.301.536-.484 1.19-1.269.418-.183.954-.667 1.582-.942-1.06-1.281-2.146-2.053-3.166-2.104-.51-.026-1.02-.052-1.438.131l-.171-2.668-1.647.223-2.068-3.582c-.733-1.674-1.492-2.837-1.466-3.347l-.549-1.255c-.092-.209-.694-.445-1.295-.68l-3.61-1.411c-.366-.836-.615-1.974-.746-3.412-.132-1.439-.407-2.066-.498-2.276-.942-1.581-5.205-2.208-8.749-2.899-6.685-7.295-13.697-14.196-21.127-20.915-12.021-10.941-24.604-20.887-37.318-28.284 27.945-.52 55.474 7.119 78.978 21.508l-17.771 1.55c5.781 2.953 12.046 6.442 12.438 6.769.785.653 1.871 1.424 2.747 2.287.877.863 1.753 1.726 2.538 2.379.785.654 1.177.98 1.269 1.19l.498 2.275c-.118.301.091.209.209-.092.209-.091.536-.484 1.046-.458l1.229-.04c.628-.274 1.02.052 1.112.262.601.235.876.862.759 1.163-.327.392-.353.902-.588 1.504l-.118.301.602.235c.719-.066 1.556-.432 2.275-.498.627-.275 1.255-.549 1.556-.432.418-.183.719-.065 1.02.052l.627-.275c.694.445 1.178.981 1.57 1.307.392.327.994.562 1.478 1.098l.55 1.255c.183.419.575.746 1.059 1.282l-.091-.21c.968 1.072 1.936 2.144 3.113 3.124 1.269 1.19 2.655 2.079 4.042 2.967 1.386.889 2.564 1.869 3.976 2.248 1.295.68 2.197 1.032 3.1 1.385 2.655 2.078 5.219 3.947 7.874 6.025 2.655 2.079 5.428 3.856 8.293 5.843l.183.418.183.418.183.419.092.209c.667.954 1.452 1.608 2.538 2.379.876.863 2.617 4.837 3.754 4.588 2.172 1.543 4.592 4.222 6.737 6.275 5.821 4.182 13.981 4.598 19.523.176 3.726-2.879 5.765-6.763 6.182-10.935-9.502-22.266-19.92-46.623-20.378-47.669l-4.398-10.041c-1.465-3.348-2.63-6.577-3.194-9.571.68-1.295 1.242-2.289 1.568-2.682.327-.392.353-.902.562-.994.118-.3.118-.3.026-.51 0 0-.183-.418-.065-.719-.092-.209-.184-.418-.602-.235s-.928.157-1.255.55l-1.556.432c-.209.091-.51-.026-.484-.536-.092-.209-.157-.929-.615-1.975l-1.466-3.347-1.558-3.556-1.191-2.719 3.021-1.074-.119-3.687.862-.877-.641-1.464-4.184 1.832-7.42-16.944 4.064-5.52-.091-.209-5.465 2.892-.983-6.8-2.59-1.359-.615-1.974-10.993 13.041-.092-.209c-.091-.209.026-.51-.065-.719-.092-.209.026-.51-.066-.719.209-.092.118-.301.144-.811-.184-.418-.223-1.648-.655-3.204l-.04-1.229-.183-.418-.301-.118-.394-4.315.928-.157c-.196-2.158-.485-4.524-.564-6.983-.08-2.458-.46-5.034-.422-7.793-.25-5.126-.409-10.043-.567-14.96-.368-4.825-.487-8.512-.684-10.67-.092-.209-.694-.444-1.897-.915l-.131-1.438.928-.157-.394-4.315c-.131-1.439-.262-2.877-.184-4.407l-.092-.209-.157-.929c-.472-2.785-.643-5.452-1.023-8.028-.263-2.877-.434-5.545-.395-8.304l-.275-.627c.326-.393.536-.484.653-.785.118-.301.327-.392.445-.693l-.187-8.395c-.091-.21-.183-.419-.484-.536l-.274-.628c.209-.091.3.118.51.026.209-.092.51.026.81.144l.184.418c1.752 1.725 3.505 3.45 4.957 5.059l4.632 5.451.575.745.092.209 2.629 2.589c.877.862 1.753 1.725 2.42 2.679l.536-.484.968 1.072c-.352.903-.588 1.504-.496 1.713 1.361 1.399 3.388 3.752 6.502 6.876 3.021 2.915 5.926 6.131 9.039 9.255 1.661 1.516 3.113 3.124 4.565 4.732 1.452 1.608 2.905 3.216 4.265 4.615l.628-.275 2.721 2.797.183.419.575.745c.851 1.372 1.427 2.118 1.819 2.444.092.21.392.327.693.445.092.209.393.327.484.536.301.117.393.326.484.536l.968 1.072.184.418.183.418.418-.183 1.452 1.608-.679 1.295 6.109 6.549c.602.235.994.562 1.086.771l.209-.092 2.001 2.864 1.256-.55 1.059 1.281-24.898-1.063s34.902 71.725 35.346 71.032c.118-.301 16.161 30.07 16.161 30.07 2.916.966 5.532 1.816 6.173 3.28.092.209.157.928.079 2.458.132 1.439.08 2.459.329 3.596 1.478 1.098 2.772 1.778 3.165 2.104.602.235.994.562 1.177.981l.55 1.255c.183.418.524 1.765 1.047 3.53l.092.209c2.197 1.032 4.42 1.555 7.088 1.384 3.988-.002 7.544-1.559 10.433-4.071l.21-.092c2.679-2.42 4.692-5.794 4.991-9.665l1.161-8.735c-.341-1.347-.956-3.322-.904-4.342.17-1.32.221-2.34-.027-3.478l-.092-.209-.275-.628-.091-.209-.275-.627c.482-3.453.756-6.814 1.33-10.057.365-3.151.638-6.512.912-9.873.444-.693.705-1.805 1.084-3.217.378-1.413.757-2.825 1.044-4.447.287-1.621.274-3.36.561-4.982.078-1.53.155-3.06-.185-4.407l.092.209c-.066-.719-.04-1.229-.223-1.647l-.55-1.255c.026-.51-.04-1.229.195-1.831.026-.51.17-1.321.104-2.04l.628-.275c.118-.301.235-.601.653-.785.21-.091.628-.275 1.373-.85.628-.275 1.164-.759 1.791-1.034l.144-.811c-.393-.326-.903-.352-1.504-.588-.51-.026-.576-.745-.341-1.346-.091-.21.144-.811.562-.994l.863-.877.837-.366-.066-.719-.942-1.582s-.066-.72-.223-1.648c.052-1.02.104-2.04-.027-3.478-.04-1.229.13-2.55.181-3.57.026-.51 2.821-11.208 4.479-17.668l.144-.811-.536.484-14.798 13.461c5.365-27.031 18.419-52.444 37.752-72.628-3.186 14.359-4.409 30.352-4.612 46.397l.091.21s-.026.51.066.719c-.365 3.151-2.022 13.6-1.747 14.228.157.928.523 1.765.589 2.484.367.837.641 1.464 1.034 1.791-.536.484-.562.994-.405 1.923.157.928.524 1.765.89 2.602l.275.627c.171 2.668.25 5.126.421 7.794-.326.392-.653.784-.261 1.111.446 3.295.918 6.08 1.089 8.748.157.928.223 1.648.38 2.576.696 8.421 1.811 16.659 2.951 24.387-.209.091-.418.183-.536.484.355 3.086.826 5.871 1.481 9.074.773 2.903 1.336 5.897 1.481 9.075a76.34 76.34 0 01.069 8.696c-.365 3.151-.521 6.211-.768 9.062-.156 3.06-.312 6.12-.259 9.088.054 2.969.617 5.963 1.298 8.657l.602.235c.51.026 1.02.052 1.438-.132l1.53.078c.51.026.811.144.811.144l-2.011 7.363-2.196 2.956c.092.209-.026.51.157.928-.536.484-.862.877-1.398 1.361l-10.955 10.282-18.157 17.176c-1.817 1.544-2.548 3.859-2.586 6.618l.733 1.673c1.491 2.837 2.591 5.348 3.206 7.322l4.906 6.079-4.329-1.346c.773 2.903 1.296 4.668 1.872 5.413.576.746 1.177.981 1.596.798.418-.184 1.046-.459 1.765-.524.627-.275 1.321.169 2.171 1.542.275.628.759 1.164 1.125 2 .367.837.942 1.582 1.518 2.327l1.727 2.236c.484.536 1.177.98 1.478 1.098l.707 2.183c2.223.523 4.237 1.136 6.16 1.541l.994.562 11.676-2.371c.209-.092.719-.066 1.02.052l9.56 3.043.419-.183a190.447 190.447 0 009.152-3.011c1.948-.105 3.897-.211 5.963-.617l7.925 1.017.418-.183c3.138-1.374 5.138-2.5 7.439-3.507l8.708-2.318 7.284-.447.209-.092a445.408 445.408 0 017.099-4.854c2.301-1.008 4.393-1.924 6.602-3.141l8.682-1.808.327-.392c2.798-2.721 4.523-4.474 6.902-7.012 1.373-.85 2.445-1.818 3.608-2.577 3.256-1.675 5.557-2.683 9.231-4.541l2.628-1.4-2.708-1.058-9.625-3.763c-.994-.562-2.682-1.568-3.767-2.339-2.538-2.379-4.409-3.804-7.548-6.418l-.301-.117-8.944-1.069c-2.315-.732-4.513-1.764-6.827-2.496-.994-.561-1.988-1.123-3.283-1.803l-22.229 2.754 20.919-9.161 9.672-13.211 5.44 1.607 9.95-4.607.235-.602c3.162-5.872 5.175-9.247 7.566-14.034 2.17-2.446 4.339-4.892 6.3-7.246l10.615-7.641.236-.602c1.998-5.113 3.409-8.723 4.729-12.542 2.666-4.159 5.332-8.318 7.906-12.687l8.419-8.673.025-.51c1.306-5.558 2.115-9.403 3.16-13.849a147.29 147.29 0 004.35-11.13l8.273-11.85.026-.51c.246-6.839.454-10.919.256-17.065.522-2.223 1.044-4.446 1.357-6.578 2.117-5.415 3.645-9.325 6.023-15.851l1.763-4.512-3.321.956z" fill="#0073F1"/></svg>