<svg width="33" height="33" viewBox="0 0 33 33" fill="none" xmlns="http://www.w3.org/2000/svg"><path d="M16.399.002c2.114 0 4.228-.007 6.342.003 1.223.006 2.423.174 3.58.605a9.686 9.686 0 014.434 3.306c.872 1.155 1.48 2.44 1.75 3.867.14.735.239 1.49.243 2.236.024 4.368.024 8.737.013 13.105-.005 2.042-.541 3.938-1.676 5.638-.72 1.077-1.613 1.994-2.701 2.687-.562.357-1.195.598-1.786.91-.627.332-1.311.352-1.984.356-5.076.032-10.152.052-15.228.053-.846 0-1.708-.025-2.53-.197-.675-.14-1.325-.47-1.944-.798-.77-.407-1.455-.956-2.062-1.59C1.173 28.433.21 26.354.06 23.91a32.74 32.74 0 01-.052-1.955c-.003-3.96-.024-7.921.011-11.881.032-3.491 1.415-6.317 4.265-8.338C5.728.712 7.35.104 9.12.066c2.425-.05 4.852-.012 7.279-.012V.002zm-.034 29.864h6.342c.9 0 1.78-.106 2.63-.44a6.466 6.466 0 002.707-1.987c1.027-1.271 1.472-2.75 1.471-4.382-.002-3.471.01-6.942.006-10.413-.002-1.142.013-2.286-.06-3.423-.104-1.634-.82-3-1.984-4.124-1.31-1.265-2.895-1.817-4.689-1.815-4.12.003-8.24-.003-12.36.006-.58 0-1.167.023-1.739.109-1.64.247-2.965 1.073-4.004 2.366-1.026 1.277-1.445 2.761-1.44 4.392.012 3.49.006 6.98.014 10.468.002 1.078-.017 2.16.053 3.233.122 1.86.964 3.368 2.378 4.545 1.216 1.014 2.633 1.465 4.2 1.465h6.475z" fill="#0073F1"/><path d="M16.38 25.106c-4.643.032-8.441-3.854-8.435-8.534.007-4.674 3.814-8.54 8.446-8.537 4.637.003 8.434 3.88 8.434 8.548 0 4.69-3.812 8.561-8.445 8.523zm.004-13.83c-2.848.002-5.22 2.4-5.224 5.281-.003 2.883 2.361 5.284 5.213 5.295 2.854.01 5.243-2.406 5.238-5.298-.006-2.882-2.38-5.278-5.227-5.277zM26.856 8.06c-.004 1.118-.87 2.004-1.97 2.012-1.095.008-1.993-.908-1.988-2.028.006-1.122.9-2.017 2.005-2.006 1.099.011 1.957.9 1.953 2.022z" fill="#0073F1"/></svg>