<svg width="33" height="33" viewBox="0 0 33 33" fill="none" xmlns="http://www.w3.org/2000/svg">
<path d="M16.399 0.00243415C18.5129 0.00243415 20.6269 -0.00452875 22.7407 0.00509819C23.9642 0.0106459 25.1638 0.179363 26.3203 0.610291C28.1152 1.27912 29.5945 2.37887 30.755 3.91592C31.6267 5.07061 32.2342 6.35692 32.5049 7.78317C32.6443 8.51776 32.7436 9.27257 32.7478 10.0189C32.7721 14.3872 32.7719 18.7559 32.7612 23.1243C32.7561 25.1658 32.2197 27.0618 31.0848 28.7616C30.3657 29.8387 29.4717 30.7565 28.3839 31.4491C27.8224 31.8065 27.1893 32.0468 26.5983 32.3591C25.9708 32.6906 25.2869 32.7113 24.6138 32.7155C19.5378 32.7467 14.4618 32.7671 9.38571 32.7681C8.54044 32.7683 7.6778 32.7429 6.85532 32.5714C6.18072 32.4308 5.53095 32.1001 4.91176 31.7729C4.14148 31.3659 3.4573 30.8168 2.84973 30.183C1.17273 28.4337 0.209199 26.3544 0.0613767 23.9101C0.0220292 23.2598 0.00896704 22.607 0.00853702 21.9553C0.00595685 17.9946 -0.0151153 14.0338 0.0204695 10.0735C0.0518615 6.58269 1.43526 3.75683 4.28467 1.73583C5.72817 0.711999 7.35114 0.103652 9.11974 0.0663411C11.5451 0.0151606 13.9724 0.0535587 16.3989 0.0535587C16.399 0.0365348 16.399 0.0195124 16.399 0.00243415ZM16.3654 29.8658C18.4793 29.8658 20.5932 29.8655 22.7071 29.866C23.6076 29.8662 24.4868 29.7598 25.3364 29.4263C26.415 29.003 27.3166 28.3379 28.0436 27.4388C29.0714 26.1679 29.5163 24.6899 29.5151 23.0572C29.5126 19.586 29.5242 16.1148 29.5206 12.6436C29.5194 11.5024 29.5343 10.3583 29.4614 9.2209C29.3568 7.58693 28.6411 6.22084 27.4769 5.09682C26.1665 3.83172 24.5824 3.28038 22.788 3.28179C18.6677 3.28511 14.5474 3.27869 10.4271 3.2875C9.84735 3.28875 9.26138 3.31067 8.68923 3.39693C7.04937 3.64408 5.72398 4.46971 4.68471 5.76342C3.65893 7.04032 3.24008 8.52396 3.24546 10.1554C3.25702 13.6447 3.25051 17.1341 3.25868 20.6234C3.26121 21.7014 3.24202 22.7823 3.31244 23.8565C3.4344 25.7167 4.27575 27.2238 5.68984 28.4015C6.90644 29.4146 8.32311 29.866 9.88933 29.8658C12.048 29.8655 14.2067 29.8656 16.3654 29.8658Z" fill="#0073F1"/>
<path d="M16.3798 25.1058C11.7369 25.1376 7.93855 21.2525 7.94532 16.5718C7.95209 11.8982 11.7592 8.03184 16.3907 8.03516C21.0283 8.03842 24.8251 11.9157 24.8251 16.5828C24.8252 21.2733 21.013 25.1444 16.3798 25.1058ZM16.3839 11.2768C13.5358 11.2776 11.1633 13.6757 11.16 16.557C11.1567 19.4396 13.5214 21.8412 16.3733 21.8516C19.2274 21.8619 21.6159 19.4461 21.6106 16.5541C21.6054 13.6724 19.2319 11.2759 16.3839 11.2768Z" fill="#0073F1"/>
<path d="M26.856 8.06001C26.8521 9.17793 25.9851 10.0637 24.8869 10.0718C23.7912 10.0798 22.8931 9.16395 22.8985 8.04396C22.9038 6.92186 23.7982 6.02704 24.9034 6.03819C26.0016 6.04918 26.8599 6.9379 26.856 8.06001Z" fill="#0073F1"/>
</svg>
