<svg width="40" height="33" viewBox="0 0 40 33" fill="none" xmlns="http://www.w3.org/2000/svg">
<g clip-path="url(#clip0)">
<path d="M38.0538 30.6533C38.1389 30.6541 38.2233 30.638 38.3017 30.6059C38.3801 30.5738 38.4509 30.5265 38.5096 30.4668C38.5684 30.4071 38.6138 30.3363 38.6432 30.2589C38.6725 30.1815 38.6851 30.0991 38.6802 30.0168C38.6802 29.5653 38.3991 29.3496 37.8224 29.3496H36.8906V31.7132H37.2411V30.6829H37.6718L37.6816 30.6954L38.3499 31.7132H38.7247L38.0057 30.6598L38.0538 30.6533ZM37.6485 30.4165H37.2421V29.6175H37.7572C38.0233 29.6175 38.3266 29.6596 38.3266 29.9972C38.3266 30.3854 38.0197 30.4165 37.6464 30.4165" fill="#0073F1"/>
<path d="M28.9105 27.691H23.9408V20.1498C23.9408 18.3516 23.9077 16.0366 21.356 16.0366C18.7676 16.0366 18.3716 17.9959 18.3716 20.0189V27.6905H13.4019V12.1828H18.1728V14.3021H18.2396C18.717 13.5111 19.407 12.8603 20.2359 12.4192C21.0649 11.9781 22.0018 11.7631 22.9469 11.797C27.9839 11.797 28.9126 15.0073 28.9126 19.1837L28.9105 27.691ZM7.79437 10.063C7.22397 10.0631 6.66633 9.89929 6.19201 9.59231C5.71768 9.28534 5.34798 8.84896 5.1296 8.33838C4.91123 7.8278 4.85399 7.26593 4.96517 6.72384C5.07635 6.18175 5.35094 5.68378 5.7542 5.29289C6.15747 4.90201 6.6713 4.63577 7.23072 4.52785C7.79014 4.41993 8.37001 4.47517 8.89703 4.68658C9.42405 4.898 9.87453 5.25609 10.1915 5.71558C10.5085 6.17508 10.6777 6.71533 10.6778 7.26802C10.6779 7.635 10.6034 7.99839 10.4585 8.33745C10.3136 8.67652 10.1013 8.98462 9.83352 9.24415C9.56577 9.50369 9.24785 9.70958 8.89798 9.85008C8.5481 9.99057 8.1731 10.0629 7.79437 10.063ZM10.2792 27.691H5.30433V12.1828H10.2792V27.691ZM31.3881 0.00221419H2.80706C2.15835 -0.00487925 1.53324 0.237868 1.06915 0.677112C0.605057 1.11636 0.339948 1.71616 0.332031 2.34473V30.1534C0.339677 30.7823 0.604631 31.3825 1.06871 31.8222C1.53278 32.2619 2.15803 32.5051 2.80706 32.4985H31.3881C32.0384 32.5064 32.6654 32.2638 33.1313 31.8241C33.5972 31.3845 33.864 30.7836 33.873 30.1534V2.34272C33.8637 1.71291 33.5968 1.11242 33.1309 0.673188C32.6649 0.233954 32.0381 -0.00809952 31.3881 0.000206938" fill="#0073F1"/>
<path d="M37.6909 28.2969C37.0863 28.3025 36.5085 28.5399 36.084 28.9572C35.6596 29.3745 35.4229 29.9376 35.4258 30.5235C35.4287 31.1094 35.671 31.6704 36.0996 32.0837C36.5282 32.497 37.1082 32.729 37.7129 32.729C38.3176 32.729 38.8976 32.497 39.3262 32.0837C39.7548 31.6704 39.9971 31.1094 40 30.5235C40.0029 29.9376 39.7662 29.3745 39.3418 28.9572C38.9173 28.5399 38.3395 28.3025 37.7349 28.2969H37.6909ZM37.6909 32.4753C37.2943 32.4817 36.9047 32.374 36.5712 32.1658C36.2378 31.9576 35.9756 31.6583 35.8177 31.3057C35.6599 30.9531 35.6134 30.5631 35.6843 30.185C35.7552 29.8068 35.9403 29.4576 36.216 29.1813C36.4918 28.9051 36.8459 28.7142 37.2336 28.633C37.6213 28.5517 38.0251 28.5837 38.3941 28.7249C38.763 28.866 39.0804 29.11 39.3063 29.426C39.5321 29.7419 39.6561 30.1157 39.6627 30.4999C39.6627 30.511 39.6627 30.5215 39.6627 30.5325C39.6738 31.0367 39.4778 31.5244 39.1179 31.8885C38.7579 32.2527 38.2634 32.4633 37.7432 32.4743H37.6914" fill="#0073F1"/>
</g>
<defs>
<clipPath id="clip0">
<rect width="39.6667" height="32.7681" fill="white" transform="translate(0.333984)"/>
</clipPath>
</defs>
</svg>
